PathFileType	4	(X/Y/Z)	Patient4_TMGait_0pt4_03_right_18.trc.trc
DataRate	CameraRate	NumFrames	NumMarkers	Units	OrigDataRate	OrigDataStartFrame	OrigNumFrames
75.268817204301	75.268817204301	6	33	mm	75.268817204301	124	       141
Frame#	Time	Sacral			L.Shoulder			Chest			R.Shoulder			Neck			R.ASIS			L.ASIS			R.Thigh.Superior			R.Thigh.Lateral			R.Thigh.Inferior			R.Patella			L.Thigh.Superior			L.Thigh.Lateral			L.Thigh.Inferior			L.Patella			L.Shank.Superior			L.Shank.Lateral			L.Shank.Inferior			R.Shank.Superior			R.Shank.Lateral			R.Shank.Inferior			R.Heel			R.Midfoot.Superior			R.Midfoot.Lateral			R.Toe			L.Heel			L.Midfoot.Lateral			L.Midfoot.Superior			L.Toe			L.Elbow			L.Wrist			R.Elbow			R.Wrist			
		X1	Y1	Z1	X2	Y2	Z2	X3	Y3	Z3	X4	Y4	Z4	X5	Y5	Z5	X6	Y6	Z6	X7	Y7	Z7	X8	Y8	Z8	X9	Y9	Z9	X10	Y10	Z10	X11	Y11	Z11	X12	Y12	Z12	X13	Y13	Z13	X14	Y14	Z14	X15	Y15	Z15	X16	Y16	Z16	X17	Y17	Z17	X18	Y18	Z18	X19	Y19	Z19	X20	Y20	Z20	X21	Y21	Z21	X22	Y22	Z22	X23	Y23	Z23	X24	Y24	Z24	X25	Y25	Z25	X26	Y26	Z26	X27	Y27	Z27	X28	Y28	Z28	X29	Y29	Z29	X30	Y30	Z30	X31	Y31	Z31	X32	Y32	Z32	X33	Y33	Z33	

124	24.464142857143	850.695928086234	995.637603439583	427.041807254813	1040.329353490988	1428.532508746585	250.466996168791	1128.279524668043	1365.270121816397	421.828395949791	1026.432189486027	1437.048328957439	586.535059075643	1008.148480283764	1491.186178743630	404.824786324003	1074.090223219324	940.499420883856	561.810483469764	1078.058742879003	960.304129952040	286.002807474094	1141.926737588658	752.648460878361	540.384375918442	1082.599249545017	635.314727537465	609.205242614377	1172.048149744137	591.961308713525	533.316068085632	1195.486339953749	508.385279976547	548.716397709390	1100.590324850628	736.814009648996	316.751765348941	999.353966451850	629.686909266352	250.187643888089	1069.302193691931	543.223926712057	315.036179941124	1059.189960932520	472.632188009699	323.107400950954	1022.270010086093	403.856284558141	315.410883670521	917.059003733952	302.608268808758	265.088701589488	950.734169253634	185.352051575740	335.646084153198	1172.957208947250	420.032853046049	560.773596096822	1109.593838054261	313.400237068645	626.401398778986	1170.033954215705	220.677793057251	576.568186338805	1062.734896943773	45.045680592868	552.557928102807	1229.628559937201	103.949016369116	591.669712501973	1145.114874625179	39.778389255690	628.172674794793	1350.784190417564	58.643347447671	621.101576198295	809.397438938467	39.262255180462	380.979882264864	879.672614290350	35.265849769556	297.531707622814	964.731056534030	95.204292016475	322.701679547795	1091.754116462044	41.419545892255	287.648927385163	1083.302471582396	1081.477806552921	124.693234320895	1268.844124720271	896.915272270703	158.856837780883	958.155460759157	1095.902266921392	705.051536507009	1036.400218060885	846.571024358462	727.654996465734	
125	24.477428571429	852.500042769495	994.446251745262	429.494240260526	1039.677900028841	1428.082931088566	253.674251233323	1128.153130669911	1365.243626246424	424.959653746650	1025.906884495098	1436.296223176664	589.784925866494	1007.312331727259	1490.513516225179	408.110467887240	1076.155034154663	939.524788131018	563.818887208326	1080.507923140577	960.482212328252	287.942585815555	1144.328627741616	751.308736464817	541.487808269420	1083.633725904556	633.613218455785	608.876080617748	1173.283713222847	590.677293278558	533.241370174911	1195.456121617090	505.831557716490	547.569540777330	1100.987622664766	735.732477200856	317.629765801502	998.033993826561	629.464588479410	251.577196559631	1067.401884692970	542.243464491861	315.890920675046	1056.754940573629	471.560101579125	323.910829962930	1019.210182830573	403.247719867017	316.163384231565	912.907429355261	302.976430114573	265.850425295640	946.022495739782	185.108563725827	335.925315510800	1171.276177771253	416.935909148416	559.604236896054	1105.852078530271	311.542927767183	625.571300775948	1163.353482074741	217.372373908807	574.837576974544	1051.499265935159	44.128367390671	551.779844826475	1219.325834654254	101.009572603772	589.686252566505	1134.071111174492	38.392422582515	627.183021061885	1340.311530224263	54.217762436064	618.983698410107	804.019997907035	39.188878050937	381.023649874243	874.315948870608	35.197879106711	297.618110648688	959.417605504228	95.146371161473	322.756001736671	1086.435517903529	41.267460923710	287.597694846861	1081.382136712031	1080.572078745831	128.371473131450	1265.788704482063	894.490263755449	160.765111104751	959.268377387665	1094.864415187771	708.140314506784	1041.374097323951	846.627206984233	729.704346762961	
126	24.490714285714	854.388851910272	993.393594004784	432.035932401448	1039.158707141837	1427.764811343423	257.067918612605	1128.143197842824	1365.278471244161	428.257701402946	1025.520661507541	1435.591299280736	593.222249310972	1006.619166761164	1489.945806759584	411.600937651329	1078.263332706784	938.732603034837	565.906422907423	1082.963718875476	960.758817243115	290.001904514656	1146.693275805094	750.152136334352	542.439293901965	1084.974286268839	632.313744750347	608.750961805773	1174.484716794415	589.661090372136	533.047580794955	1195.526200243290	503.632699765048	546.510180990617	1101.475247648321	734.717609781194	318.560927037542	996.767471294567	629.279696225682	253.101938215862	1065.642270942909	541.311624007451	316.875198903236	1054.503435740239	470.472695046770	324.793731118387	1016.249796597176	402.683865695666	316.993418266380	908.757617695184	303.483094866784	266.735242021089	941.331129926713	184.934139029108	336.238314447545	1169.966802517102	414.322279478043	558.683799412989	1103.012403273441	310.016582794623	625.203426156056	1157.731793442753	214.636715148873	573.451199549425	1041.882202456871	43.381598769272	551.444203254620	1210.406315443953	98.941972316480	588.152676905741	1124.686217422163	37.456910411931	626.596396118715	1331.355490105789	51.093503796671	617.254172270031	798.619292783474	39.177213714165	381.073690501301	868.960122009348	35.141661694606	297.721587715440	954.124314722877	95.098534959629	322.809366126640	1081.138765121162	41.086798999288	287.527958529112	1079.057368553519	1079.791194136605	132.120513967278	1262.081644890226	891.923224148946	162.341944374089	960.667478875045	1093.862278940614	711.461484950048	1046.725647351270	846.852444322832	732.159752210620	
127	24.504000000000	856.316311459951	992.519537617790	434.642718585342	1038.804948271622	1427.615543032616	260.623976373590	1128.251612530568	1365.379627747119	431.699382124123	1025.284190945723	1434.955449911667	596.819070484621	1006.091406554300	1489.511442372349	415.270017427407	1080.354199451602	938.149920259229	568.088694336398	1085.288982072176	961.096182012908	292.213803461308	1148.952800629671	749.246501686251	543.257488889442	1086.610855063312	631.451143645272	608.910918110461	1175.627978680177	588.928391137556	532.821916756139	1195.678629271819	501.838320263691	545.697954963055	1102.075900313243	733.816567565346	319.631770147632	995.694134253309	629.118333687562	254.771371817731	1064.203897874443	540.444723847392	318.023654355486	1052.639620391048	469.353902250000	325.748054092522	1013.547253439466	402.154248574996	317.896972620568	904.738132085134	304.165696716081	267.745592152619	936.731830716118	184.856596696301	336.573389313820	1169.002572388908	412.228071802944	558.096679705719	1100.996598845492	308.837600917504	625.292086698738	1153.141838826910	212.502206367173	572.454907376930	1033.887777512163	42.837114204733	551.448287253605	1202.886442825861	97.677593350078	587.112331072140	1116.918249492868	36.922768159521	626.358407047422	1323.881049665974	49.132764214799	615.997311488980	793.209982793048	39.329777739301	381.119504819656	863.617802906093	35.146591580780	297.835448744210	948.889557254036	95.077068129988	322.845465457681	1075.869835353004	40.867891208303	287.437270276525	1076.346878417150	1079.182743032110	135.928494991771	1257.700310945463	889.250853833131	163.591939978837	962.341590623357	1092.919539652959	714.988244227968	1052.420251420777	847.271947344954	735.001914520802	
128	24.517285714286	858.225099040935	991.847632731196	437.304901635925	1038.631413718845	1427.657563379946	264.314333842206	1128.471400876078	1365.545318195226	435.255782410297	1025.202401291738	1434.403959747834	600.543686200728	1005.736682072909	1489.225985960794	419.086844333422	1082.378036242232	937.785313932464	570.386684303884	1087.356631891990	961.454617347622	294.607389624299	1151.059269203631	748.628081278021	543.997457566483	1088.492203532611	631.006193399180	609.412306757283	1176.696155838436	588.453763073280	532.674645309993	1195.867387195371	500.438341215709	545.258259777100	1102.826174894262	733.077391750244	320.921001615370	994.981436155786	628.961096551225	256.585675229695	1063.308310204458	539.658218364884	319.348845304480	1051.412728135744	468.187789547113	326.744097337341	1011.303897674002	401.644087137424	318.856475733740	901.021462734181	305.066150443255	268.872134818994	932.324086227667	184.913778842997	336.909926811200	1168.294624602896	410.623209092549	557.884234197006	1099.605650023048	307.981865286137	625.777889446541	1149.409646080087	210.927929498565	571.847532289053	1027.305504657280	42.495323759702	551.680415473240	1196.590736336395	97.071576320831	586.542443796628	1110.525734042087	36.707399390731	626.391268650279	1317.668506250551	48.101155954754	615.220001732029	787.822608334194	39.789842378850	381.147067972935	858.309628466298	35.288228498104	297.949382968917	943.767763508541	95.107375119463	322.841214552249	1070.632178383808	40.603732475845	287.324917724272	1073.274262883812	1078.784750693055	139.778121420108	1252.627628780623	886.509430662529	164.533134047992	964.273455366337	1092.056622975458	718.699034514536	1058.434311042096	847.913479961357	738.200453731950	
129	24.530571428571	860.050136194990	991.382614979404	440.030325058439	1038.628840292712	1427.893722990889	268.109815435390	1128.787932411825	1365.766685166949	438.894070528486	1025.277100029182	1433.943031363641	604.364734333093	1005.549195399860	1489.090434593414	423.020016864958	1084.300105032466	937.629721014146	572.820281091462	1089.068847255032	961.800672469674	297.200162081843	1152.975258968510	748.287767002019	544.751506607534	1090.500679581925	630.907241161508	610.280706848436	1177.652815975861	588.173118206582	532.725099408161	1196.008681723445	499.373301698235	545.261636172360	1103.778433824560	732.544377516844	322.485631676936	994.816024782886	628.785011838562	258.535391842936	1063.205495091740	538.967852707611	320.840483240117	1051.101921311992	466.963885590783	327.735767648051	1009.755653262614	401.138149950425	319.843895530260	897.819531234039	306.231303979956	270.093940906776	928.235035950184	185.156394756056	337.220985522558	1167.702490311873	409.428966363011	558.044453255263	1098.568900724696	307.391368628419	626.563158371355	1146.275346634089	209.821753500565	571.588337708278	1021.801045422233	42.330906883405	552.036764897810	1191.229974023204	96.940669415116	586.369522726409	1105.158813620868	36.715217325537	626.609780661369	1312.397334659743	47.727282741558	614.869506070353	782.507975266071	40.741002480028	381.140380433881	853.066374213823	35.671588736582	298.050573263711	938.829771771601	95.225439400754	322.768850988878	1065.425687892342	40.291352070781	287.192789391444	1069.867156264121	1078.619869991757	143.646366298653	1246.852948973363	883.730467307353	165.195194407798	966.440348289915	1091.288532051463	722.581062134466	1064.755900725614	848.805403556338	741.712748490252	
